<svg id="Layer_2" data-name="Layer 2" xmlns="http://www.w3.org/2000/svg" viewBox="0 0 1920 1080"><defs><style>.cls-1{fill:#f59552;}</style></defs><path class="cls-1" d="M1920,0V816.61a433,433,0,0,1-47.59,1.79c-78.21-1.39-120-23.52-134.11-5.29-11.46,14.83,6.58,41.91-11,59.75a33.5,33.5,0,0,1-13,7.95,21.47,21.47,0,0,1-14.46-4.34c-16.07-12.24,9.25-51.85-3.61-68-19.67-24.6-100.93,40.41-171.52,9.25-10.94-4.83-18.31-10.5-35.66-15-10.62-2.77-60.54-16.2-82,7.11-21,22.87-3.44,72.45-21.43,78.26a14.46,14.46,0,0,1-10.24-.93c-19-9.94-.59-65.17-17.71-72.67a10.91,10.91,0,0,0-8.38,0c-12.14,5.25-6.56,34.58-17.7,38.2a8.21,8.21,0,0,1-4.66,0c-11.23-2.92-7.77-25.42-19.56-37.27-7.52-7.55-17.41-6.91-31.75-7.84-33.14-2.14-42.28-9.36-69.48-13.82-50.17-8.24-109.49,1.49-139.86,5-85.33,9.86-86.08-12.69-191.39-12.3-82.14.31-216.65,32.5-216.65,32.5-198.07,48.64-400.36-32.9-413.63,10.42-4.07,13.3,9.16,37.75-3.2,49.54a22.15,22.15,0,0,1-17.11,5.35c-7.85-.94-12.8-6.29-13.9-7.49-11.93-12.89-.15-29.74-6.78-40.76-12.2-20.31-70.55,7.12-144.24-.78A279.39,279.39,0,0,1,0,822.19V0Z"/></svg>